<svg width="1000" height="800" xmlns="http://www.w3.org/2000/svg">
  <!-- Sidebar -->
  <rect x="0" y="0" width="200" height="800" fill="#f3f4f6"/>
  <text x="40" y="50" font-size="24" font-family="Arial" font-weight="bold">Logo</text>
  <text x="40" y="100" font-size="18" font-family="Arial">Dashboard</text>
  <text x="40" y="140" font-size="18" font-family="Arial">Account</text>
  <rect x="30" y="700" width="140" height="40" rx="8" fill="#e0e7ef"/>
  <text x="50" y="728" font-size="16" font-family="Arial">user@email.com ▼</text>
  <text x="50" y="750" font-size="14" font-family="Arial" fill="#ef4444">Logout</text>
  
  <!-- Main Content -->
  <text x="240" y="50" font-size="28" font-family="Arial" font-weight="bold">Invoice Dashboard</text>
  
  <!-- Invoice Creation Form -->
  <rect x="240" y="80" width="700" height="180" fill="#fff" stroke="#cbd5e1" rx="12"/>
  <text x="260" y="110" font-size="20" font-family="Arial" font-weight="bold">Create New Invoice</text>
  <text x="260" y="140" font-size="16" font-family="Arial">Client Name</text>
  <rect x="350" y="125" width="180" height="24" fill="#f3f4f6" stroke="#cbd5e1"/>
  <text x="550" y="140" font-size="16" font-family="Arial">Email</text>
  <rect x="600" y="125" width="180" height="24" fill="#f3f4f6" stroke="#cbd5e1"/>
  <text x="260" y="170" font-size="16" font-family="Arial">Address</text>
  <rect x="330" y="155" width="450" height="24" fill="#f3f4f6" stroke="#cbd5e1"/>
  <text x="260" y="200" font-size="16" font-family="Arial">Line Items</text>
  <rect x="350" y="185" width="400" height="24" fill="#f3f4f6" stroke="#cbd5e1"/>
  <text x="760" y="200" font-size="14" font-family="Arial" fill="#2563eb">+ Add Item</text>
  <text x="260" y="230" font-size="16" font-family="Arial">Subtotal: $0.00  Tax: $0.00  Total: $0.00</text>
  <rect x="800" y="220" width="120" height="32" rx="8" fill="#2563eb"/>
  <text x="820" y="242" font-size="16" font-family="Arial" fill="#fff">Generate PDF</text>
  
  <!-- Invoice List -->
  <text x="240" y="290" font-size="20" font-family="Arial" font-weight="bold">Your Invoices</text>
  <rect x="240" y="310" width="700" height="400" fill="#fff" stroke="#cbd5e1" rx="12"/>
  <text x="260" y="340" font-size="16" font-family="Arial" font-weight="bold">ID</text>
  <text x="340" y="340" font-size="16" font-family="Arial" font-weight="bold">Client</text>
  <text x="480" y="340" font-size="16" font-family="Arial" font-weight="bold">Total</text>
  <text x="600" y="340" font-size="16" font-family="Arial" font-weight="bold">Date</text>
  <text x="700" y="340" font-size="16" font-family="Arial" font-weight="bold">Status</text>
  <text x="800" y="340" font-size="16" font-family="Arial" font-weight="bold">Actions</text>
  <!-- Example row -->
  <rect x="250" y="360" width="660" height="40" fill="#f3f4f6"/>
  <text x="260" y="385" font-size="14" font-family="Arial">#1234</text>
  <text x="340" y="385" font-size="14" font-family="Arial">Acme Corp</text>
  <text x="480" y="385" font-size="14" font-family="Arial">$500.00</text>
  <text x="600" y="385" font-size="14" font-family="Arial">2025-06-10</text>
  <text x="700" y="385" font-size="14" font-family="Arial" fill="#f59e42">Processing...</text>
  <rect x="800" y="370" width="80" height="24" rx="6" fill="#d1fae5"/>
  <text x="810" y="388" font-size="14" font-family="Arial" fill="#10b981">Download</text>
  <rect x="890" y="370" width="24" height="24" rx="6" fill="#fee2e2"/>
  <text x="895" y="388" font-size="16" font-family="Arial" fill="#ef4444">🗑</text>
</svg>
