<svg width="800" height="900" xmlns="http://www.w3.org/2000/svg">
  <!-- Navbar -->
  <rect x="0" y="0" width="800" height="60" fill="#f3f4f6" />
  <text x="30" y="38" font-size="24" font-family="Arial" font-weight="bold">Logo</text>
  <text x="600" y="38" font-size="18" font-family="Arial">Features</text>
  <text x="680" y="38" font-size="18" font-family="Arial">Pricing</text>
  <text x="750" y="38" font-size="18" font-family="Arial">Login</text>
  <rect x="700" y="15" width="80" height="30" rx="6" fill="#2563eb" />
  <text x="715" y="35" font-size="16" font-family="Arial" fill="#fff">Sign Up</text>
  
  <!-- Hero Section -->
  <rect x="50" y="80" width="700" height="160" fill="#e0e7ef" rx="12"/>
  <text x="100" y="130" font-size="32" font-family="Arial" font-weight="bold">Effortless Invoicing, Instant PDFs.</text>
  <text x="100" y="170" font-size="18" font-family="Arial">Create, manage, and download invoices in seconds.</text>
  <rect x="100" y="190" width="220" height="40" rx="8" fill="#2563eb"/>
  <text x="120" y="218" font-size="18" font-family="Arial" fill="#fff">Get Started for Free</text>
  
  <!-- Features Section -->
  <text x="50" y="270" font-size="24" font-family="Arial" font-weight="bold">Features</text>
  <rect x="50" y="290" width="200" height="120" fill="#fff" stroke="#cbd5e1"/>
  <circle cx="80" cy="320" r="20" fill="#a5b4fc"/>
  <text x="110" y="325" font-size="16" font-family="Arial" font-weight="bold">Async PDF Generation</text>
  <text x="70" y="350" font-size="14" font-family="Arial">Fast UI, background PDF creation.</text>
  
  <rect x="300" y="290" width="200" height="120" fill="#fff" stroke="#cbd5e1"/>
  <circle cx="330" cy="320" r="20" fill="#6ee7b7"/>
  <text x="360" y="325" font-size="16" font-family="Arial" font-weight="bold">Secure & Private</text>
  <text x="320" y="350" font-size="14" font-family="Arial">Your data is safe and private.</text>
  
  <rect x="550" y="290" width="200" height="120" fill="#fff" stroke="#cbd5e1"/>
  <circle cx="580" cy="320" r="20" fill="#fbbf24"/>
  <text x="610" y="325" font-size="16" font-family="Arial" font-weight="bold">Simple Interface</text>
  <text x="570" y="350" font-size="14" font-family="Arial">Easy-to-use invoice form.</text>
  
  <!-- Footer -->
  <rect x="0" y="850" width="800" height="50" fill="#f3f4f6"/>
  <text x="30" y="880" font-size="14" font-family="Arial">Terms of Service</text>
  <text x="160" y="880" font-size="14" font-family="Arial">Privacy Policy</text>
  <text x="300" y="880" font-size="14" font-family="Arial">Contact</text>
  <text x="650" y="880" font-size="14" font-family="Arial">&#169; 2025 Invoice PDF Generator</text>
</svg>
